<svg xmlns="http://www.w3.org/2000/svg" viewBox="0 0 382 60"><defs><style>.cls-1{fill:#5091cd;}.cls-2{fill:#f9a456;}.cls-3{fill:#9ecf7c;}.cls-4{fill:#8869ae;}.cls-5{fill:#231f20;}.cls-6{fill:#333132;}</style></defs><title>hum-insight_logo</title><g id="Layer_2" data-name="Layer 2"><g id="web_version" data-name="web version"><path class="cls-1" d="M40.43,20.21A20,20,0,0,1,37.89,30a20.2,20.2,0,0,0-23.58-9.55l-.12,0c-.31.09-.63.2-.93.31s-.53.2-.79.31-.68.29-1,.45-.52.25-.77.39-.63.35-.93.53-.7.44-1,.68a.42.42,0,0,0-.12.08c-.33.22-.65.46-1,.71l0,0c-.34.27-.67.56-1,.85s-.53.49-.79.75-.27.27-.39.41-.52.55-.75.84-.48.6-.7.9a.44.44,0,0,0-.08.11,10.61,10.61,0,0,0-.61.88c-.07.09-.12.18-.18.27-.21.34-.41.67-.6,1A20,20,0,0,1,0,20.21a18.49,18.49,0,0,1,.1-2c0-.45.1-.91.18-1.36,0-.24.07-.46.12-.7a1,1,0,0,0,0-.17c0-.26.11-.51.18-.77A12.26,12.26,0,0,1,1,14a5.82,5.82,0,0,1,.22-.67c.15-.41.31-.82.49-1.22.09-.22.19-.43.29-.64s.2-.41.31-.6a7.33,7.33,0,0,1,.39-.73A6.42,6.42,0,0,1,3,9.59c.13-.21.25-.41.39-.61l.07-.11c.17-.25.35-.51.54-.75s.36-.47.54-.69.47-.57.72-.84.32-.35.48-.5l0,0A20.21,20.21,0,0,1,40.43,20.21Z"/><path class="cls-2" d="M20.21,12.32a8.56,8.56,0,0,1-5.9,8.13l-.12,0-.93.31-.79.31c-.34.14-.68.29-1,.45s-.52.25-.77.39-.63.35-.93.53-.7.44-1,.68a.42.42,0,0,0-.12.08,10.8,10.8,0,0,0-1,.71l0,0c-.34.27-.67.56-1,.85s-.54.5-.79.75L5.45,26c-.26.28-.52.55-.75.84s-.48.59-.7.9a.44.44,0,0,0-.08.11,10.61,10.61,0,0,0-.61.88c-.07.09-.12.18-.18.27-.21.33-.41.67-.6,1A20,20,0,0,1,0,20.21a18.49,18.49,0,0,1,.1-2c0-.45.1-.91.18-1.36,0-.24.07-.46.12-.7a1,1,0,0,0,0-.17c0-.26.11-.51.18-.77A12.26,12.26,0,0,1,1,14a5.82,5.82,0,0,1,.22-.67c.15-.41.31-.82.49-1.22.09-.22.19-.43.29-.64s.2-.41.31-.6a7.33,7.33,0,0,1,.39-.73A6.42,6.42,0,0,1,3,9.59c.13-.21.25-.41.39-.61l.07-.11c.17-.25.35-.51.54-.75s.36-.47.54-.69.47-.57.72-.84l.14-.16.34-.34,0,0A8.57,8.57,0,0,1,20.21,12.32Z"/><path class="cls-3" d="M40.43,39.79c0,.33,0,.67,0,1,0,0,0,0,0,0A19.27,19.27,0,0,1,40,43.69c0,.31-.12.63-.2.94s-.11.42-.17.63c-.11.4-.23.8-.37,1.19s-.21.58-.33.88h0c-.1.24-.21.48-.31.73s-.31.64-.47,1l-.37.69-.17.28c-.12.21-.24.41-.37.61l0,.06a7,7,0,0,1-.45.66c-.13.2-.26.38-.41.57s-.31.42-.48.62a10.92,10.92,0,0,1-.77.89c-.16.18-.31.35-.47.5l0,0A20.21,20.21,0,0,1,0,39.79,20,20,0,0,1,2.53,30,20.2,20.2,0,0,0,20.2,40.43a20.71,20.71,0,0,0,6-.91,20.18,20.18,0,0,0,2-.75c.23-.1.47-.21.7-.33a18.1,18.1,0,0,0,2.64-1.52A5.15,5.15,0,0,0,32,36.6c.29-.2.58-.42.86-.65s.57-.47.83-.71L34,35a5.17,5.17,0,0,0,.53-.52A5.16,5.16,0,0,0,35,34a1.29,1.29,0,0,0,.16-.17c.19-.2.38-.41.55-.62s.4-.5.59-.76a4.21,4.21,0,0,0,.41-.56L37,31.5c.15-.22.3-.44.43-.67l.49-.82h0c.2.36.4.73.57,1.1a20.19,20.19,0,0,1,1.46,4.17c.1.42.17.84.24,1.26A19.47,19.47,0,0,1,40.43,39.79Z"/><path class="cls-4" d="M40.42,39.79c0,.33,0,.67,0,1,0,0,0,0,0,0A22.58,22.58,0,0,1,40,43.69c0,.31-.12.63-.2.94s-.11.42-.17.63c-.11.4-.23.8-.37,1.19s-.21.58-.33.88h0c-.1.24-.21.48-.31.73s-.31.64-.47,1l-.37.69-.17.28c-.12.21-.24.41-.37.61l0,.06a7,7,0,0,1-.45.66c-.13.2-.26.38-.41.57s-.31.42-.48.62a10.92,10.92,0,0,1-.77.89,1.07,1.07,0,0,1-.14.16c-.1.12-.22.23-.33.34l0,0a8.57,8.57,0,1,1-8.38-14.45,20.18,20.18,0,0,0,2-.75c.23-.1.47-.21.7-.33a18.1,18.1,0,0,0,2.64-1.52A5.15,5.15,0,0,0,32,36.6c.29-.2.58-.42.86-.65s.57-.47.83-.71L34,35c.18-.16.37-.35.53-.52A5.1,5.1,0,0,0,35,34a1.29,1.29,0,0,0,.16-.17l.55-.62c.2-.25.4-.5.59-.76a5.34,5.34,0,0,0,.41-.56L37,31.5c.15-.22.29-.44.43-.67l.49-.82c.2.36.4.72.57,1.09a20.19,20.19,0,0,1,1.46,4.17q.13.63.24,1.26A20.59,20.59,0,0,1,40.42,39.79Z"/><path class="cls-5" d="M59.34,50.83a5.5,5.5,0,0,1-.45,1.71A3.93,3.93,0,0,1,58,53.83a3.86,3.86,0,0,1-1.4.8,5.56,5.56,0,0,1-1.84.28,4.52,4.52,0,0,1-1.94-.4,4.18,4.18,0,0,1-1.49-1.15,5.47,5.47,0,0,1-1-1.79A7.58,7.58,0,0,1,50,49.26V47.69a7.67,7.67,0,0,1,.33-2.31,5.47,5.47,0,0,1,1-1.79,4.37,4.37,0,0,1,1.51-1.15,4.79,4.79,0,0,1,2-.41,5.31,5.31,0,0,1,1.8.28,3.86,3.86,0,0,1,1.38.8,4.24,4.24,0,0,1,.92,1.3,5.3,5.3,0,0,1,.44,1.72H58.27a5.42,5.42,0,0,0-.34-1.36,2.81,2.81,0,0,0-1.71-1.62,4.33,4.33,0,0,0-1.42-.21,3.44,3.44,0,0,0-1.56.34,3.18,3.18,0,0,0-1.17,1,4.25,4.25,0,0,0-.74,1.49,6.91,6.91,0,0,0-.25,1.94v1.59a7.19,7.19,0,0,0,.24,1.91,4.57,4.57,0,0,0,.7,1.51,3.19,3.19,0,0,0,1.15,1,3.27,3.27,0,0,0,1.56.36,3.52,3.52,0,0,0,2.5-.8,3.82,3.82,0,0,0,1-2.39Z"/><path class="cls-5" d="M61.46,49.94a5.64,5.64,0,0,1,.3-1.87,4.32,4.32,0,0,1,.83-1.49,4,4,0,0,1,3-1.33,4,4,0,0,1,1.72.36,3.77,3.77,0,0,1,1.32,1,4.32,4.32,0,0,1,.83,1.49,5.64,5.64,0,0,1,.29,1.87v.29a5.7,5.7,0,0,1-.29,1.88,4.28,4.28,0,0,1-.83,1.48,3.71,3.71,0,0,1-1.31,1,4.38,4.38,0,0,1-3.43,0,3.71,3.71,0,0,1-1.31-1,4.14,4.14,0,0,1-.84-1.48,5.7,5.7,0,0,1-.3-1.88Zm1,.29a5,5,0,0,0,.21,1.46,3.81,3.81,0,0,0,.6,1.21A2.82,2.82,0,0,0,65.62,54,2.73,2.73,0,0,0,67,53.73a2.81,2.81,0,0,0,1-.83,3.43,3.43,0,0,0,.6-1.21,5,5,0,0,0,.21-1.46v-.29a5,5,0,0,0-.21-1.44,3.57,3.57,0,0,0-.6-1.22,3.06,3.06,0,0,0-1-.84,3,3,0,0,0-1.35-.31,2.87,2.87,0,0,0-1.33.31,3.06,3.06,0,0,0-1,.84,4,4,0,0,0-.6,1.22,5,5,0,0,0-.21,1.44Z"/><path class="cls-5" d="M73.23,45.43l0,1.59a4,4,0,0,1,.55-.73,3.46,3.46,0,0,1,.71-.55,2.94,2.94,0,0,1,.83-.36,3.26,3.26,0,0,1,1-.13,4,4,0,0,1,1.25.19,2.41,2.41,0,0,1,.93.6,2.83,2.83,0,0,1,.59,1.07,5.45,5.45,0,0,1,.2,1.57v6.06h-1V48.67a4.08,4.08,0,0,0-.15-1.2,1.9,1.9,0,0,0-.44-.78,1.74,1.74,0,0,0-.69-.42,3.28,3.28,0,0,0-.91-.12,2.66,2.66,0,0,0-1,.18,2.79,2.79,0,0,0-.79.5,3.42,3.42,0,0,0-.6.71,3.84,3.84,0,0,0-.39.82v6.38h-1V45.43Z"/><path class="cls-5" d="M83.27,45.43l0,1.59a4,4,0,0,1,.55-.73,3.69,3.69,0,0,1,.7-.55,3.13,3.13,0,0,1,.84-.36,3.26,3.26,0,0,1,.95-.13,3.94,3.94,0,0,1,1.24.19,2.37,2.37,0,0,1,.94.6,2.82,2.82,0,0,1,.58,1.07,5.1,5.1,0,0,1,.21,1.57v6.06h-1V48.67a4.08,4.08,0,0,0-.15-1.2,2,2,0,0,0-.44-.78,1.71,1.71,0,0,0-.7-.42,3.16,3.16,0,0,0-.9-.12,2.66,2.66,0,0,0-1,.18,2.79,2.79,0,0,0-.79.5,3.42,3.42,0,0,0-.6.71,3.84,3.84,0,0,0-.39.82v6.38h-1V45.43Z"/><path class="cls-5" d="M95.94,54.91a4,4,0,0,1-1.68-.34,3.91,3.91,0,0,1-1.33-1,4.31,4.31,0,0,1-.86-1.44,5.09,5.09,0,0,1-.31-1.83V50A5.7,5.7,0,0,1,92.08,48,4.67,4.67,0,0,1,93,46.54a3.78,3.78,0,0,1,1.27-.95,3.45,3.45,0,0,1,1.52-.34,3.73,3.73,0,0,1,1.57.32,3.19,3.19,0,0,1,1.16.89,4,4,0,0,1,.71,1.35,5.79,5.79,0,0,1,.24,1.71v.63H92.78v.2A4.27,4.27,0,0,0,93,51.79,3.65,3.65,0,0,0,93.67,53a3.25,3.25,0,0,0,1,.79A2.92,2.92,0,0,0,96,54a3.37,3.37,0,0,0,1.46-.3,3.3,3.3,0,0,0,1.15-1l.64.49a4.47,4.47,0,0,1-.54.64,3.17,3.17,0,0,1-.71.52,3.52,3.52,0,0,1-.91.35A4.44,4.44,0,0,1,95.94,54.91Zm-.19-8.78a2.58,2.58,0,0,0-2,.86,3.28,3.28,0,0,0-.63,1,4.9,4.9,0,0,0-.33,1.28h5.59v-.11A4.69,4.69,0,0,0,98.22,48a3.21,3.21,0,0,0-.51-1,2.33,2.33,0,0,0-.82-.67A2.46,2.46,0,0,0,95.75,46.13Z"/><path class="cls-5" d="M105.23,54a3,3,0,0,0,1-.14,2.27,2.27,0,0,0,.8-.42,2.12,2.12,0,0,0,.58-.68,2.15,2.15,0,0,0,.26-.94h1a2.85,2.85,0,0,1-.33,1.23,3.29,3.29,0,0,1-.78,1,4,4,0,0,1-1.12.64,4.07,4.07,0,0,1-1.35.22,3.89,3.89,0,0,1-1.72-.36,3.4,3.4,0,0,1-1.24-1,4.24,4.24,0,0,1-.76-1.48,6.28,6.28,0,0,1-.25-1.83V49.9a6.37,6.37,0,0,1,.25-1.83,4.44,4.44,0,0,1,.75-1.47,3.69,3.69,0,0,1,1.25-1,4.2,4.2,0,0,1,3.1-.12,3.22,3.22,0,0,1,1.12.66,3.14,3.14,0,0,1,.77,1.05,3.68,3.68,0,0,1,.31,1.37h-1a2.73,2.73,0,0,0-.24-1,2.38,2.38,0,0,0-.56-.76,2.23,2.23,0,0,0-.81-.49,2.94,2.94,0,0,0-1-.17,2.7,2.7,0,0,0-1.35.31,2.62,2.62,0,0,0-.91.84,3.4,3.4,0,0,0-.51,1.2,6,6,0,0,0-.16,1.42v.36a6.17,6.17,0,0,0,.16,1.44,3.33,3.33,0,0,0,.51,1.2,2.43,2.43,0,0,0,.91.83A2.73,2.73,0,0,0,105.23,54Z"/><path class="cls-5" d="M112.83,43v2.39h1.92v.84h-1.92v6.21a2.73,2.73,0,0,0,.09.78,1.24,1.24,0,0,0,.27.47.76.76,0,0,0,.39.22A1.76,1.76,0,0,0,114,54a3.4,3.4,0,0,0,.45,0l.38-.06,0,.85a2.43,2.43,0,0,1-.5.1,4,4,0,0,1-.6,0,3,3,0,0,1-.82-.11,1.48,1.48,0,0,1-.64-.4,2,2,0,0,1-.42-.76,3.84,3.84,0,0,1-.15-1.16V46.27h-1.71v-.84h1.71V43Z"/><path class="cls-5" d="M117.18,42.73a.68.68,0,0,1,.71-.7.69.69,0,0,1,.52.21.67.67,0,0,1,.19.49.66.66,0,0,1-.19.49.72.72,0,0,1-.52.2.7.7,0,0,1-.52-.2A.66.66,0,0,1,117.18,42.73Zm1.21,12h-1V45.43h1Z"/><path class="cls-5" d="M122.53,45.43l0,1.59a4,4,0,0,1,.56-.73,3.4,3.4,0,0,1,.7-.55,3.07,3.07,0,0,1,.83-.36,3.3,3.3,0,0,1,.95-.13,4,4,0,0,1,1.25.19,2.27,2.27,0,0,1,.93.6,2.83,2.83,0,0,1,.59,1.07,5.45,5.45,0,0,1,.2,1.57v6.06h-1V48.67a4.05,4.05,0,0,0-.16-1.2,1.9,1.9,0,0,0-.44-.78,1.74,1.74,0,0,0-.69-.42,3.23,3.23,0,0,0-.91-.12,2.66,2.66,0,0,0-1,.18,2.79,2.79,0,0,0-.79.5,3.1,3.1,0,0,0-.59.71,3.88,3.88,0,0,0-.4.82v6.38h-1V45.43Z"/><path class="cls-5" d="M131.17,50a7.36,7.36,0,0,1,.24-2,4.74,4.74,0,0,1,.71-1.5,3.16,3.16,0,0,1,1.14-.95,3.23,3.23,0,0,1,1.51-.34,3.54,3.54,0,0,1,1.71.4,3.33,3.33,0,0,1,1.18,1.12l.05-1.34h1v9.15a4.59,4.59,0,0,1-.27,1.62,3.49,3.49,0,0,1-.75,1.22,3.24,3.24,0,0,1-1.18.76,4.18,4.18,0,0,1-1.54.27,4.07,4.07,0,0,1-.9-.1,3.66,3.66,0,0,1-.88-.3,3.91,3.91,0,0,1-.8-.49,3.43,3.43,0,0,1-.67-.7l.58-.62a3.9,3.9,0,0,0,1.21,1,3.09,3.09,0,0,0,1.39.32,3.36,3.36,0,0,0,1.18-.2,2.28,2.28,0,0,0,.86-.59,2.38,2.38,0,0,0,.54-.93,4,4,0,0,0,.18-1.24V53.53a3.28,3.28,0,0,1-1.17,1,3.78,3.78,0,0,1-1.71.36,3.08,3.08,0,0,1-1.5-.35,3.27,3.27,0,0,1-1.13-1,4.58,4.58,0,0,1-.71-1.49,7.21,7.21,0,0,1-.24-1.92Zm1,.18a7.31,7.31,0,0,0,.16,1.52,4.06,4.06,0,0,0,.5,1.22,2.49,2.49,0,0,0,.85.8,2.37,2.37,0,0,0,1.22.3,3.48,3.48,0,0,0,1-.13,2.75,2.75,0,0,0,.75-.36,2.44,2.44,0,0,0,.57-.54,3.07,3.07,0,0,0,.41-.68V48a3.29,3.29,0,0,0-.37-.69,2.8,2.8,0,0,0-.55-.59,2.69,2.69,0,0,0-.75-.4,3,3,0,0,0-1-.15,2.34,2.34,0,0,0-2.09,1.11,3.86,3.86,0,0,0-.5,1.22,7.31,7.31,0,0,0-.16,1.52Z"/><path class="cls-5" d="M148.73,53.26l2.72-7.83h1.11l-3.94,10.8a7.72,7.72,0,0,1-.31.71,2.77,2.77,0,0,1-.48.74,2.57,2.57,0,0,1-.74.59,2.33,2.33,0,0,1-1.08.23h-.2l-.22,0-.21,0-.16,0v-.85l.28,0a1.4,1.4,0,0,0,.25,0,2.4,2.4,0,0,0,.74-.11,1.45,1.45,0,0,0,.55-.32,2,2,0,0,0,.42-.52,5.12,5.12,0,0,0,.33-.74l.44-1.23-3.51-9.23h1.13Z"/><path class="cls-5" d="M153.81,49.94a5.64,5.64,0,0,1,.3-1.87,4.34,4.34,0,0,1,.84-1.49,3.79,3.79,0,0,1,1.3-1,4,4,0,0,1,1.71-.36,4.06,4.06,0,0,1,1.73.36,3.83,3.83,0,0,1,1.31,1,4.32,4.32,0,0,1,.83,1.49,5.64,5.64,0,0,1,.3,1.87v.29a5.7,5.7,0,0,1-.3,1.88,4.28,4.28,0,0,1-.83,1.48,3.71,3.71,0,0,1-1.31,1,4,4,0,0,1-1.71.35,4,4,0,0,1-1.72-.35,3.71,3.71,0,0,1-1.31-1,4.46,4.46,0,0,1-.84-1.48,5.7,5.7,0,0,1-.3-1.88Zm1,.29a5,5,0,0,0,.21,1.46,3.81,3.81,0,0,0,.6,1.21,2.9,2.9,0,0,0,1,.83,3.07,3.07,0,0,0,2.69,0,2.87,2.87,0,0,0,1-.83,3.63,3.63,0,0,0,.61-1.21,5.36,5.36,0,0,0,.2-1.46v-.29a5.38,5.38,0,0,0-.2-1.44,3.78,3.78,0,0,0-.61-1.22,3.06,3.06,0,0,0-1-.84,3,3,0,0,0-1.35-.31,2.87,2.87,0,0,0-1.33.31,3.17,3.17,0,0,0-1,.84,4,4,0,0,0-.6,1.22,5,5,0,0,0-.21,1.44Z"/><path class="cls-5" d="M170.6,53.56a3,3,0,0,1-1.17,1,4,4,0,0,1-1.8.36,3.77,3.77,0,0,1-1.25-.19,2.41,2.41,0,0,1-1-.62,2.81,2.81,0,0,1-.62-1.09,5.07,5.07,0,0,1-.22-1.62v-6h1v6a3.76,3.76,0,0,0,.18,1.25,2.13,2.13,0,0,0,.46.8,1.78,1.78,0,0,0,.69.43,2.77,2.77,0,0,0,.83.13,4,4,0,0,0,1.09-.14,2.5,2.5,0,0,0,.82-.39,2.41,2.41,0,0,0,.57-.58,3.14,3.14,0,0,0,.35-.74V45.43h1v9.31h-1Z"/><path class="cls-5" d="M180.88,43v2.39h1.93v.84h-1.93v6.21a2.69,2.69,0,0,0,.1.78,1.24,1.24,0,0,0,.27.47.76.76,0,0,0,.39.22,1.7,1.7,0,0,0,.46.06,3.4,3.4,0,0,0,.45,0l.38-.06,0,.85a2.58,2.58,0,0,1-.5.1,4.08,4.08,0,0,1-.61,0,3,3,0,0,1-.81-.11,1.48,1.48,0,0,1-.64-.4,2,2,0,0,1-.42-.76,3.84,3.84,0,0,1-.15-1.16V46.27h-1.71v-.84h1.71V43Z"/><path class="cls-5" d="M184.56,49.94a5.64,5.64,0,0,1,.3-1.87,4.19,4.19,0,0,1,.84-1.49,3.79,3.79,0,0,1,1.3-1,4.27,4.27,0,0,1,3.43,0,3.77,3.77,0,0,1,1.32,1,4.32,4.32,0,0,1,.83,1.49,5.64,5.64,0,0,1,.3,1.87v.29a5.7,5.7,0,0,1-.3,1.88,4.28,4.28,0,0,1-.83,1.48,3.71,3.71,0,0,1-1.31,1,4.38,4.38,0,0,1-3.43,0,3.71,3.71,0,0,1-1.31-1,4.3,4.3,0,0,1-.84-1.48,5.7,5.7,0,0,1-.3-1.88Zm1,.29a5,5,0,0,0,.21,1.46,3.81,3.81,0,0,0,.6,1.21,2.9,2.9,0,0,0,1,.83,2.8,2.8,0,0,0,1.35.31,2.72,2.72,0,0,0,1.33-.31,2.81,2.81,0,0,0,1-.83,3.63,3.63,0,0,0,.61-1.21,5.36,5.36,0,0,0,.2-1.46v-.29a5.38,5.38,0,0,0-.2-1.44,3.78,3.78,0,0,0-.61-1.22,3.06,3.06,0,0,0-1-.84,3,3,0,0,0-1.35-.31,2.87,2.87,0,0,0-1.33.31,3.17,3.17,0,0,0-1,.84,4,4,0,0,0-.6,1.22,5,5,0,0,0-.21,1.44Z"/><path class="cls-5" d="M200.33,47.08a4.07,4.07,0,0,1,.56-.72,3.38,3.38,0,0,1,.71-.55,3.78,3.78,0,0,1,.82-.36,3.61,3.61,0,0,1,.94-.12,3.69,3.69,0,0,1,1.25.19,2.37,2.37,0,0,1,.94.6,2.74,2.74,0,0,1,.58,1.07,5.12,5.12,0,0,1,.2,1.57v6.06h-1V48.75a4.16,4.16,0,0,0-.15-1.21,2,2,0,0,0-.44-.77,1.52,1.52,0,0,0-.7-.42,3.18,3.18,0,0,0-.91-.12,2.59,2.59,0,0,0-1.79.68,3.14,3.14,0,0,0-.59.71,3.88,3.88,0,0,0-.4.82v6.38h-1V41.59h1Z"/><path class="cls-5" d="M215.33,53.64a3,3,0,0,1-1.17,1,4,4,0,0,1-1.8.36,4.1,4.1,0,0,1-1.25-.19,2.45,2.45,0,0,1-1-.62,2.82,2.82,0,0,1-.63-1.09,5.37,5.37,0,0,1-.22-1.62v-6h1v6a4,4,0,0,0,.17,1.24,2.07,2.07,0,0,0,.47.8,1.6,1.6,0,0,0,.68.44,2.82,2.82,0,0,0,.83.12,4,4,0,0,0,1.09-.13,2.5,2.5,0,0,0,.82-.39A2.28,2.28,0,0,0,215,53a2.65,2.65,0,0,0,.35-.74V45.5h1v9.32h-1Z"/><path class="cls-5" d="M220.31,45.5l0,1.52a3.05,3.05,0,0,1,.54-.69,3.14,3.14,0,0,1,1.51-.88,3.71,3.71,0,0,1,1-.12,3.4,3.4,0,0,1,1.76.43,2.4,2.4,0,0,1,1,1.38,3.76,3.76,0,0,1,.54-.72,3.55,3.55,0,0,1,.71-.57,3.66,3.66,0,0,1,.88-.38,3.92,3.92,0,0,1,1.05-.14,4.27,4.27,0,0,1,1.29.19,2.31,2.31,0,0,1,1,.62,2.73,2.73,0,0,1,.6,1.06,5.4,5.4,0,0,1,.2,1.55v6.07h-1V48.74a4,4,0,0,0-.16-1.23,1.9,1.9,0,0,0-.47-.77,1.6,1.6,0,0,0-.72-.4,3.29,3.29,0,0,0-.91-.11,2.74,2.74,0,0,0-1.15.23,2.8,2.8,0,0,0-.83.58,2.57,2.57,0,0,0-.53.78,2.44,2.44,0,0,0-.22.83v6.17h-1V48.66a3.53,3.53,0,0,0-.16-1.16,1.87,1.87,0,0,0-.46-.75,1.83,1.83,0,0,0-.72-.4,3.38,3.38,0,0,0-.93-.12,2.74,2.74,0,0,0-1,.18,2.43,2.43,0,0,0-.78.5,2.89,2.89,0,0,0-.55.7,4.44,4.44,0,0,0-.34.82v6.39h-1V45.5Z"/><path class="cls-5" d="M241.23,54.82a3.5,3.5,0,0,1-.13-.59c0-.24,0-.47-.06-.71a4.2,4.2,0,0,1-.55.57,4.41,4.41,0,0,1-.72.46,4.24,4.24,0,0,1-.87.32,4.13,4.13,0,0,1-1,.12,3.71,3.71,0,0,1-1.24-.2,3,3,0,0,1-.95-.55,2.49,2.49,0,0,1-.6-.84,2.44,2.44,0,0,1-.22-1,2.6,2.6,0,0,1,.29-1.23,2.78,2.78,0,0,1,.85-.93,4.12,4.12,0,0,1,1.34-.59,7.31,7.31,0,0,1,1.77-.2H241V48.34a2,2,0,0,0-.62-1.57,2.55,2.55,0,0,0-1.79-.57,3.18,3.18,0,0,0-1,.15,2.35,2.35,0,0,0-.79.4,2,2,0,0,0-.52.6,1.55,1.55,0,0,0-.18.73h-1a2.2,2.2,0,0,1,.25-1,3,3,0,0,1,.73-.87,3.71,3.71,0,0,1,1.13-.62,4.47,4.47,0,0,1,1.46-.23,4.52,4.52,0,0,1,1.36.19,2.82,2.82,0,0,1,1.07.57,2.48,2.48,0,0,1,.7.95,3.17,3.17,0,0,1,.25,1.32v4.51c0,.16,0,.33,0,.5a4,4,0,0,0,.06.5,3.4,3.4,0,0,0,.09.46,1.55,1.55,0,0,0,.12.38v.11ZM238,54.08a3.72,3.72,0,0,0,1-.14,3.46,3.46,0,0,0,.87-.4,2.89,2.89,0,0,0,.67-.58,3,3,0,0,0,.46-.72V50.19h-1.77a6,6,0,0,0-1.41.15,3.3,3.3,0,0,0-1.06.41,2,2,0,0,0-.66.64,1.85,1.85,0,0,0-.08,1.58,1.73,1.73,0,0,0,.42.58,2.14,2.14,0,0,0,.66.39A2.65,2.65,0,0,0,238,54.08Z"/><path class="cls-5" d="M246.13,45.5l0,1.6a4,4,0,0,1,.55-.73,3.45,3.45,0,0,1,.7-.56,3.94,3.94,0,0,1,.84-.36,3.61,3.61,0,0,1,.94-.12,3.69,3.69,0,0,1,1.25.19,2.37,2.37,0,0,1,.94.6,2.74,2.74,0,0,1,.58,1.07,5.1,5.1,0,0,1,.21,1.57v6.06h-1V48.75a4.16,4.16,0,0,0-.15-1.21,2,2,0,0,0-.44-.77,1.52,1.52,0,0,0-.7-.42,3.16,3.16,0,0,0-.9-.12,2.59,2.59,0,0,0-1.8.68,3.14,3.14,0,0,0-.59.71,3.88,3.88,0,0,0-.4.82v6.38h-1V45.5Z"/><path class="cls-5" d="M255.13,42.81a.69.69,0,0,1,.19-.5.68.68,0,0,1,.51-.2.69.69,0,0,1,.52.2.7.7,0,0,1,.2.5.73.73,0,0,1-1.23.49A.67.67,0,0,1,255.13,42.81Zm1.21,12h-1V45.5h1Z"/><path class="cls-5" d="M261.09,43.12V45.5H263v.85h-1.93v6.2a2.76,2.76,0,0,0,.1.79,1.24,1.24,0,0,0,.27.47.84.84,0,0,0,.39.22,1.7,1.7,0,0,0,.46.06l.45,0,.38-.06.05.84a2.51,2.51,0,0,1-.5.11,4.17,4.17,0,0,1-.61,0,2.64,2.64,0,0,1-.81-.12,1.39,1.39,0,0,1-.64-.4,1.94,1.94,0,0,1-.42-.75,3.87,3.87,0,0,1-.15-1.17v-6.2h-1.71V45.5h1.71V43.12Z"/><path class="cls-5" d="M271.39,54.82a2.73,2.73,0,0,1-.13-.59,5.69,5.69,0,0,1-.07-.71,3.67,3.67,0,0,1-.55.57,3.94,3.94,0,0,1-.71.46,4.73,4.73,0,0,1-.87.32,4.22,4.22,0,0,1-1,.12,3.69,3.69,0,0,1-1.23-.2,2.86,2.86,0,0,1-.95-.55,2.67,2.67,0,0,1-.61-.84,2.59,2.59,0,0,1-.21-1,2.48,2.48,0,0,1,.29-1.23,2.85,2.85,0,0,1,.84-.93,4.22,4.22,0,0,1,1.34-.59,7.43,7.43,0,0,1,1.77-.2h1.91V48.34a2,2,0,0,0-.61-1.57,2.56,2.56,0,0,0-1.8-.57,3.22,3.22,0,0,0-1,.15,2.4,2.4,0,0,0-.78.4,1.74,1.74,0,0,0-.52.6,1.56,1.56,0,0,0-.19.73h-1a2.21,2.21,0,0,1,.26-1,2.72,2.72,0,0,1,.73-.87,3.77,3.77,0,0,1,1.12-.62,4.52,4.52,0,0,1,1.46-.23,4.58,4.58,0,0,1,1.37.19,3,3,0,0,1,1.07.57,2.59,2.59,0,0,1,.7.95,3.34,3.34,0,0,1,.25,1.32v4.51c0,.16,0,.33,0,.5s0,.34.06.5l.09.46a2.14,2.14,0,0,0,.12.38v.11Zm-3.24-.74a3.84,3.84,0,0,0,1-.14,3.24,3.24,0,0,0,.86-.4,2.94,2.94,0,0,0,.68-.58,2.72,2.72,0,0,0,.45-.72V50.19h-1.76a6.13,6.13,0,0,0-1.42.15,3.24,3.24,0,0,0-1.05.41,1.85,1.85,0,0,0-.66.64,1.76,1.76,0,0,0-.08,1.58,1.58,1.58,0,0,0,.41.58,2.14,2.14,0,0,0,.66.39A2.65,2.65,0,0,0,268.15,54.08Z"/><path class="cls-5" d="M279.61,46.38a3.88,3.88,0,0,0-.7-.06,2.54,2.54,0,0,0-.94.16,2.23,2.23,0,0,0-.75.43,2.89,2.89,0,0,0-.54.66,3.79,3.79,0,0,0-.35.85v6.4h-1V45.5h1l0,1.48a3.13,3.13,0,0,1,1-1.21,2.81,2.81,0,0,1,1.6-.44l.38,0a1.74,1.74,0,0,1,.3.08Z"/><path class="cls-5" d="M281.53,42.81a.67.67,0,0,1,.71-.7.72.72,0,0,1,.52.2.69.69,0,0,1,.19.5.67.67,0,0,1-.19.49.72.72,0,0,1-.52.2.7.7,0,0,1-.52-.2A.67.67,0,0,1,281.53,42.81Zm1.21,12h-1V45.5h1Z"/><path class="cls-5" d="M291.77,54.82a3.5,3.5,0,0,1-.13-.59c0-.24-.05-.47-.06-.71a4.2,4.2,0,0,1-.55.57,4.41,4.41,0,0,1-.72.46,4.24,4.24,0,0,1-.87.32,4.13,4.13,0,0,1-1,.12,3.71,3.71,0,0,1-1.24-.2,3,3,0,0,1-.95-.55,2.49,2.49,0,0,1-.6-.84,2.44,2.44,0,0,1-.22-1,2.6,2.6,0,0,1,.29-1.23,2.78,2.78,0,0,1,.85-.93,4.12,4.12,0,0,1,1.34-.59,7.31,7.31,0,0,1,1.77-.2h1.91V48.34a2,2,0,0,0-.62-1.57,2.55,2.55,0,0,0-1.79-.57,3.18,3.18,0,0,0-1,.15,2.35,2.35,0,0,0-.79.4,2,2,0,0,0-.52.6,1.55,1.55,0,0,0-.18.73h-1a2.2,2.2,0,0,1,.25-1,3,3,0,0,1,.73-.87,3.71,3.71,0,0,1,1.13-.62,4.47,4.47,0,0,1,1.46-.23,4.52,4.52,0,0,1,1.36.19,2.82,2.82,0,0,1,1.07.57,2.48,2.48,0,0,1,.7.95,3.17,3.17,0,0,1,.25,1.32v4.51c0,.16,0,.33,0,.5a4,4,0,0,0,.06.5,3.4,3.4,0,0,0,.09.46,1.55,1.55,0,0,0,.12.38v.11Zm-3.23-.74a3.72,3.72,0,0,0,1-.14,3.46,3.46,0,0,0,.87-.4,2.89,2.89,0,0,0,.67-.58,3,3,0,0,0,.46-.72V50.19H289.8a6,6,0,0,0-1.41.15,3.3,3.3,0,0,0-1.06.41,2,2,0,0,0-.66.64,1.85,1.85,0,0,0-.08,1.58,1.73,1.73,0,0,0,.42.58,2.14,2.14,0,0,0,.66.39A2.65,2.65,0,0,0,288.54,54.08Z"/><path class="cls-5" d="M296.67,45.5l0,1.6a4,4,0,0,1,.55-.73,3.74,3.74,0,0,1,.7-.56,3.94,3.94,0,0,1,.84-.36,4,4,0,0,1,2.19.07,2.37,2.37,0,0,1,.94.6,2.74,2.74,0,0,1,.58,1.07,5.1,5.1,0,0,1,.21,1.57v6.06h-1V48.75a4.16,4.16,0,0,0-.15-1.21,2,2,0,0,0-.44-.77,1.52,1.52,0,0,0-.7-.42,3.16,3.16,0,0,0-.9-.12,2.66,2.66,0,0,0-1,.18,2.59,2.59,0,0,0-.79.5,3.18,3.18,0,0,0-.6.71,3.84,3.84,0,0,0-.39.82v6.38h-1V45.5Z"/><path class="cls-5" d="M314.67,46.38a3.88,3.88,0,0,0-.7-.06,2.58,2.58,0,0,0-.94.16,2.33,2.33,0,0,0-.75.43,2.89,2.89,0,0,0-.54.66,4.33,4.33,0,0,0-.35.85v6.4h-1V45.5h1V47a3.22,3.22,0,0,1,1-1.21,2.84,2.84,0,0,1,1.6-.44l.39,0a1.58,1.58,0,0,1,.29.08Z"/><path class="cls-5" d="M320.1,55a4,4,0,0,1-1.68-.34,4,4,0,0,1-1.33-.95,4.31,4.31,0,0,1-.86-1.44,5.17,5.17,0,0,1-.31-1.83v-.37a5.7,5.7,0,0,1,.32-2,4.56,4.56,0,0,1,.88-1.49,3.78,3.78,0,0,1,1.27-.95,3.45,3.45,0,0,1,1.52-.34,3.73,3.73,0,0,1,1.57.32,3.19,3.19,0,0,1,1.16.89,3.86,3.86,0,0,1,.71,1.35,5.79,5.79,0,0,1,.24,1.71v.63h-6.65v.2a4.27,4.27,0,0,0,.24,1.44,3.5,3.5,0,0,0,.65,1.17,3,3,0,0,0,1,.79,2.92,2.92,0,0,0,1.3.29,3.37,3.37,0,0,0,1.46-.3,3.23,3.23,0,0,0,1.15-1l.64.5a3.93,3.93,0,0,1-.54.63,3.21,3.21,0,0,1-.71.53,3.92,3.92,0,0,1-.91.35A4.44,4.44,0,0,1,320.1,55Zm-.19-8.78a2.58,2.58,0,0,0-2,.86,3.23,3.23,0,0,0-.63,1,5.08,5.08,0,0,0-.33,1.29h5.59v-.11a4.69,4.69,0,0,0-.19-1.13,3.09,3.09,0,0,0-.51-1,2.37,2.37,0,0,0-2-.93Z"/><path class="cls-5" d="M331.53,52.45a1.63,1.63,0,0,0-.1-.57,1.42,1.42,0,0,0-.37-.54,2.77,2.77,0,0,0-.76-.47,6,6,0,0,0-1.26-.38,11.21,11.21,0,0,1-1.38-.38,4,4,0,0,1-1-.52,2,2,0,0,1-.84-1.72,2.23,2.23,0,0,1,.22-1,2.43,2.43,0,0,1,.66-.81,3.36,3.36,0,0,1,1-.55,4.48,4.48,0,0,1,1.37-.2,4.7,4.7,0,0,1,1.45.21,3.2,3.2,0,0,1,1.08.59,2.52,2.52,0,0,1,.68.88,2.71,2.71,0,0,1,.23,1.1h-1a1.71,1.71,0,0,0-.16-.7,1.73,1.73,0,0,0-.47-.61,2.22,2.22,0,0,0-.76-.43,3,3,0,0,0-1-.16,3.37,3.37,0,0,0-1,.14,2.2,2.2,0,0,0-.7.38,1.55,1.55,0,0,0-.4.53,1.47,1.47,0,0,0-.12.58,1.69,1.69,0,0,0,.09.56,1.15,1.15,0,0,0,.37.47,2.78,2.78,0,0,0,.76.41,10.53,10.53,0,0,0,1.27.36,12.16,12.16,0,0,1,1.45.44,3.57,3.57,0,0,1,1,.57,2.24,2.24,0,0,1,.6.76,2.36,2.36,0,0,1,.19,1,2.31,2.31,0,0,1-.24,1.05,2.35,2.35,0,0,1-.69.82,3.4,3.4,0,0,1-1.08.53,4.88,4.88,0,0,1-1.42.19,5,5,0,0,1-1.57-.23,3.69,3.69,0,0,1-1.15-.61,2.62,2.62,0,0,1-.7-.9,2.5,2.5,0,0,1-.23-1h1a1.85,1.85,0,0,0,.28.92,2.14,2.14,0,0,0,.62.58,2.8,2.8,0,0,0,.82.32,4.66,4.66,0,0,0,.9.09,3.56,3.56,0,0,0,1-.14,2.19,2.19,0,0,0,.75-.37,1.44,1.44,0,0,0,.46-.53A1.28,1.28,0,0,0,331.53,52.45Z"/><path class="cls-5" d="M342.72,50.25a7.16,7.16,0,0,1-.24,1.92,4.51,4.51,0,0,1-.69,1.5,3.26,3.26,0,0,1-1.12,1,3.13,3.13,0,0,1-1.5.35,3.83,3.83,0,0,1-1.72-.36,3.21,3.21,0,0,1-1.2-1V58.4h-1V45.5h1l.05,1.32a3.22,3.22,0,0,1,1.2-1.09,3.45,3.45,0,0,1,1.72-.4,3.27,3.27,0,0,1,1.52.34,3.1,3.1,0,0,1,1.12.95,4.41,4.41,0,0,1,.69,1.5,7.33,7.33,0,0,1,.24,2Zm-1-.18a6.65,6.65,0,0,0-.17-1.51,3.65,3.65,0,0,0-.51-1.22,2.34,2.34,0,0,0-2.1-1.11,3,3,0,0,0-1,.14,2.54,2.54,0,0,0-1.3,1,3.22,3.22,0,0,0-.37.68v4.47a2.92,2.92,0,0,0,.4.65,2.61,2.61,0,0,0,.58.52A2.57,2.57,0,0,0,338,54a3.16,3.16,0,0,0,.95.13,2.37,2.37,0,0,0,1.22-.3A2.47,2.47,0,0,0,341,53a3.79,3.79,0,0,0,.51-1.23,6.7,6.7,0,0,0,.17-1.53Z"/><path class="cls-5" d="M344.79,50a5.64,5.64,0,0,1,.29-1.87,4.51,4.51,0,0,1,.84-1.49,3.86,3.86,0,0,1,1.31-1,4.12,4.12,0,0,1,1.71-.35,4.16,4.16,0,0,1,1.72.35,3.76,3.76,0,0,1,1.31,1,4.34,4.34,0,0,1,.84,1.49A5.91,5.91,0,0,1,353.1,50v.29a5.91,5.91,0,0,1-.29,1.87,4.34,4.34,0,0,1-.84,1.49,3.79,3.79,0,0,1-1.3,1A4.2,4.2,0,0,1,349,55a4.12,4.12,0,0,1-1.71-.35,3.83,3.83,0,0,1-1.31-1,4.36,4.36,0,0,1-.85-1.49,5.64,5.64,0,0,1-.29-1.87Zm1,.29a5.05,5.05,0,0,0,.21,1.46,3.52,3.52,0,0,0,.6,1.21,2.92,2.92,0,0,0,1,.83,3.05,3.05,0,0,0,2.68,0,3,3,0,0,0,1-.83,3.92,3.92,0,0,0,.6-1.21,5.05,5.05,0,0,0,.21-1.46V50a4.92,4.92,0,0,0-.21-1.44,4,4,0,0,0-.6-1.22,3,3,0,0,0-1-.84,3.05,3.05,0,0,0-2.68,0,3,3,0,0,0-1,.84,3.57,3.57,0,0,0-.6,1.22,4.92,4.92,0,0,0-.21,1.44Z"/><path class="cls-5" d="M356.56,45.5l0,1.6a4,4,0,0,1,.55-.73,3.45,3.45,0,0,1,.7-.56,3.94,3.94,0,0,1,.84-.36,3.61,3.61,0,0,1,.94-.12,3.69,3.69,0,0,1,1.25.19,2.37,2.37,0,0,1,.94.6,2.74,2.74,0,0,1,.58,1.07,5.12,5.12,0,0,1,.2,1.57v6.06h-1V48.75a3.81,3.81,0,0,0-.16-1.21,1.85,1.85,0,0,0-.43-.77,1.52,1.52,0,0,0-.7-.42,3.18,3.18,0,0,0-.91-.12,2.61,2.61,0,0,0-1,.18,2.64,2.64,0,0,0-.8.5,3.14,3.14,0,0,0-.59.71,3.88,3.88,0,0,0-.4.82v6.38h-1V45.5Z"/><path class="cls-5" d="M371.2,52.45a1.9,1.9,0,0,0-.1-.57,1.42,1.42,0,0,0-.37-.54,2.93,2.93,0,0,0-.76-.47,6.36,6.36,0,0,0-1.26-.38,11.21,11.21,0,0,1-1.38-.38,4,4,0,0,1-1-.52,2.07,2.07,0,0,1-.63-.73,2.19,2.19,0,0,1-.22-1,2.24,2.24,0,0,1,.23-1,2.32,2.32,0,0,1,.66-.81,3.25,3.25,0,0,1,1-.55,4.42,4.42,0,0,1,1.36-.2,4.61,4.61,0,0,1,1.45.21,3.25,3.25,0,0,1,1.09.59,2.49,2.49,0,0,1,.67.88,2.56,2.56,0,0,1,.24,1.1h-1a1.56,1.56,0,0,0-.16-.7,1.7,1.7,0,0,0-.46-.61,2.32,2.32,0,0,0-.76-.43,3,3,0,0,0-1-.16,3.47,3.47,0,0,0-1,.14,2.26,2.26,0,0,0-.69.38,1.55,1.55,0,0,0-.4.53,1.47,1.47,0,0,0-.12.58,1.69,1.69,0,0,0,.09.56,1.15,1.15,0,0,0,.37.47,2.86,2.86,0,0,0,.75.41,11.1,11.1,0,0,0,1.27.36,11.82,11.82,0,0,1,1.46.44,3.71,3.71,0,0,1,1,.57,2.09,2.09,0,0,1,.59.76,2.36,2.36,0,0,1,.2,1,2.31,2.31,0,0,1-.24,1.05,2.35,2.35,0,0,1-.69.82,3.36,3.36,0,0,1-1.09.53,4.79,4.79,0,0,1-1.42.19,4.93,4.93,0,0,1-1.56-.23,3.58,3.58,0,0,1-1.15-.61,2.62,2.62,0,0,1-.7-.9,2.37,2.37,0,0,1-.24-1h1a1.76,1.76,0,0,0,.28.92,2,2,0,0,0,.62.58,2.8,2.8,0,0,0,.82.32,4.56,4.56,0,0,0,.89.09,3.64,3.64,0,0,0,1-.14,2.29,2.29,0,0,0,.75-.37,1.53,1.53,0,0,0,.46-.53A1.4,1.4,0,0,0,371.2,52.45Z"/><path class="cls-5" d="M378.5,55a4,4,0,0,1-1.67-.34,3.85,3.85,0,0,1-1.33-.95,4.31,4.31,0,0,1-.86-1.44,5.17,5.17,0,0,1-.31-1.83v-.37a5.7,5.7,0,0,1,.32-2,4.56,4.56,0,0,1,.88-1.49,3.78,3.78,0,0,1,1.27-.95,3.45,3.45,0,0,1,1.52-.34,3.73,3.73,0,0,1,1.57.32,3.19,3.19,0,0,1,1.16.89,3.86,3.86,0,0,1,.71,1.35A5.79,5.79,0,0,1,382,49.6v.63h-6.65v.2a4.27,4.27,0,0,0,.24,1.44,3.5,3.5,0,0,0,.65,1.17,3,3,0,0,0,1,.79,2.92,2.92,0,0,0,1.3.29,3.4,3.4,0,0,0,1.46-.3,3.23,3.23,0,0,0,1.15-1l.64.5a3.93,3.93,0,0,1-.54.63,3.21,3.21,0,0,1-.71.53,3.92,3.92,0,0,1-.91.35A4.47,4.47,0,0,1,378.5,55Zm-.18-8.78a2.59,2.59,0,0,0-1.09.22,2.62,2.62,0,0,0-.88.64,3.23,3.23,0,0,0-.63,1,5.08,5.08,0,0,0-.33,1.29H381v-.11a4.69,4.69,0,0,0-.19-1.13,3.09,3.09,0,0,0-.51-1,2.37,2.37,0,0,0-2-.93Z"/><path class="cls-6" d="M64.64,5v9.75H55V5H50V29.07h5V18.75h9.67V29.07h5V5Z"/><path class="cls-6" d="M84.55,11.18V23.84a2.94,2.94,0,0,1-1.23,1.24,4.22,4.22,0,0,1-2.1.45,3.59,3.59,0,0,1-1-.14,2.06,2.06,0,0,1-.81-.48,2.2,2.2,0,0,1-.53-.85,4,4,0,0,1-.19-1.27V11.18H73.89V22.75a9.64,9.64,0,0,0,.43,3,5.5,5.5,0,0,0,1.22,2.06A4.73,4.73,0,0,0,77.42,29a7.3,7.3,0,0,0,2.41.37,6.57,6.57,0,0,0,2.84-.56,5.71,5.71,0,0,0,2-1.59l.14,1.82h4.5V11.18Z"/><path class="cls-6" d="M119.2,14.5a5.21,5.21,0,0,0-1.15-2.11,4.33,4.33,0,0,0-1.82-1.17,7.16,7.16,0,0,0-2.38-.37,6.53,6.53,0,0,0-3.16.73,6.12,6.12,0,0,0-2.2,2,4.3,4.3,0,0,0-1.92-2.08,6,6,0,0,0-2.83-.65,6.76,6.76,0,0,0-3,.62,6.59,6.59,0,0,0-2.17,1.71l-.15-2H94V29.07h4.78V16.42a3.14,3.14,0,0,1,2.94-1.69,4.83,4.83,0,0,1,1.14.13,2,2,0,0,1,.85.47,2.06,2.06,0,0,1,.52.91,4.75,4.75,0,0,1,.19,1.48V29.07h4.78V17.14a1.09,1.09,0,0,0,0-.17v-.18a3.35,3.35,0,0,1,1.12-1.5,3,3,0,0,1,1.85-.56,4.72,4.72,0,0,1,1.12.13,2,2,0,0,1,.84.44,2.07,2.07,0,0,1,.54.9,4.77,4.77,0,0,1,.2,1.48V29.07h4.79V17.68A10.73,10.73,0,0,0,119.2,14.5Z"/><path class="cls-6" d="M139.16,28a5.76,5.76,0,0,1-.2-.86c-.06-.33-.1-.7-.14-1.1s0-.85,0-1.36V17.14a6.7,6.7,0,0,0-.53-2.74,5.71,5.71,0,0,0-1.5-2,6.85,6.85,0,0,0-2.28-1.18,10.5,10.5,0,0,0-2.88-.39,10.33,10.33,0,0,0-3.15.45,8,8,0,0,0-2.38,1.23,5.6,5.6,0,0,0-1.53,1.82,4.76,4.76,0,0,0-.55,2.21h4.78a2,2,0,0,1,.68-1.59,2.89,2.89,0,0,1,1.91-.58,2.47,2.47,0,0,1,2,.74,3,3,0,0,1,.64,2v1h-2.13a15.32,15.32,0,0,0-3.6.39,7.68,7.68,0,0,0-2.58,1.16,4.72,4.72,0,0,0-1.56,1.86,5.57,5.57,0,0,0-.53,2.5,4.94,4.94,0,0,0,.47,2.15,5.06,5.06,0,0,0,1.28,1.7,6,6,0,0,0,1.93,1.1,7.25,7.25,0,0,0,2.41.4,5.74,5.74,0,0,0,2.68-.56,6.3,6.3,0,0,0,1.83-1.38,5.3,5.3,0,0,0,.47,1.61h4.83v-.28A6.5,6.5,0,0,1,139.16,28ZM134,24a3.15,3.15,0,0,1-.48.64,3.52,3.52,0,0,1-.72.55,4,4,0,0,1-.94.39,4,4,0,0,1-1.14.15,2.45,2.45,0,0,1-1.72-.57,2,2,0,0,1-.62-1.48,2.91,2.91,0,0,1,.21-1.1,2.4,2.4,0,0,1,.67-.87,3.09,3.09,0,0,1,1.13-.58,6.19,6.19,0,0,1,1.64-.2h2Z"/><path class="cls-6" d="M158.39,14.49a5.21,5.21,0,0,0-1.15-2.11,4.14,4.14,0,0,0-1.79-1.17,7,7,0,0,0-2.31-.36,6.7,6.7,0,0,0-2.9.62A6.15,6.15,0,0,0,148,13.25l-.15-2.07h-4.49V29.07h4.78V16.46a3.37,3.37,0,0,1,3-1.73,4.42,4.42,0,0,1,1.22.15,2,2,0,0,1,1.45,1.36,4.48,4.48,0,0,1,.19,1.42V29.07h4.78V17.69A10.87,10.87,0,0,0,158.39,14.49Z"/><path class="cls-6" d="M163.67,11.18V29.07h4.81V11.18Zm4.89-5.61a2.34,2.34,0,0,0-.53-.79,2.5,2.5,0,0,0-.85-.51,3.18,3.18,0,0,0-1.1-.17,2.79,2.79,0,0,0-2,.68,2.4,2.4,0,0,0-.72,1.78,2.69,2.69,0,0,0,.2,1,2.24,2.24,0,0,0,.53.79,2.5,2.5,0,0,0,.85.51,3.31,3.31,0,0,0,2.21,0,2.5,2.5,0,0,0,.85-.51,2.24,2.24,0,0,0,.53-.79,2.69,2.69,0,0,0,.2-1A2.73,2.73,0,0,0,168.56,5.57Z"/><path class="cls-6" d="M181.76,25.44l-.78,0a3.88,3.88,0,0,1-.81-.07,1.29,1.29,0,0,1-.56-.28,1.16,1.16,0,0,1-.35-.58,3,3,0,0,1-.11-.92V14.68h3v-3.5h-3V6.79h-4.78v4.39h-2.61v3.5h2.61v9.45a7.28,7.28,0,0,0,.36,2.43,4,4,0,0,0,1,1.63,4.11,4.11,0,0,0,1.62.92,7.22,7.22,0,0,0,2.11.29,9.45,9.45,0,0,0,1.59-.12,12.46,12.46,0,0,0,1.3-.31V25.35C182.21,25.39,182,25.41,181.76,25.44Z"/><path class="cls-6" d="M200.75,28a7.14,7.14,0,0,1-.22-.86c-.05-.33-.09-.7-.12-1.1s-.06-.85-.06-1.36V17.14a6.38,6.38,0,0,0-.54-2.74,5.43,5.43,0,0,0-1.48-2,7,7,0,0,0-2.28-1.18,10.61,10.61,0,0,0-2.88-.39,10.33,10.33,0,0,0-3.15.45,7.91,7.91,0,0,0-2.39,1.23,5.6,5.6,0,0,0-1.53,1.82,4.75,4.75,0,0,0-.54,2.21h4.78A2,2,0,0,1,191,15a2.85,2.85,0,0,1,1.89-.58,2.48,2.48,0,0,1,2,.74,2.94,2.94,0,0,1,.64,2v1h-2.14a15.14,15.14,0,0,0-3.58.39,7.79,7.79,0,0,0-2.6,1.16,5.07,5.07,0,0,0-1.56,1.86,5.85,5.85,0,0,0-.51,2.5,4.94,4.94,0,0,0,.46,2.15,5.19,5.19,0,0,0,1.28,1.7,6.08,6.08,0,0,0,1.93,1.1,7.24,7.24,0,0,0,2.4.4,5.86,5.86,0,0,0,2.7-.56,6.3,6.3,0,0,0,1.83-1.38,5,5,0,0,0,.47,1.61h4.83v-.28A5.13,5.13,0,0,1,200.75,28Zm-5.19-4a2.6,2.6,0,0,1-.49.64,2.69,2.69,0,0,1-.72.55,3.56,3.56,0,0,1-.93.39,4.11,4.11,0,0,1-1.13.15,2.42,2.42,0,0,1-1.72-.57,2,2,0,0,1-.63-1.48,2.74,2.74,0,0,1,.22-1.1,2.37,2.37,0,0,1,.66-.87,3.22,3.22,0,0,1,1.14-.58,6,6,0,0,1,1.64-.2h2Z"/><path class="cls-6" d="M214.47,10.91a7.75,7.75,0,0,0-.8-.06,4.07,4.07,0,0,0-2.31.66,5.22,5.22,0,0,0-1.67,1.81l-.13-2.14H205V29.07h4.78V17.36A2.86,2.86,0,0,1,211.1,16a4.67,4.67,0,0,1,2.27-.47c.26,0,.54,0,.87,0l.85.09.06-4.59A4.6,4.6,0,0,0,214.47,10.91Z"/><path class="cls-6" d="M218.65,11.18V29.07h4.79V11.18Zm4.89-5.61a2.88,2.88,0,0,0-.53-.79,2.46,2.46,0,0,0-.86-.51,3.18,3.18,0,0,0-1.1-.17,2.76,2.76,0,0,0-2,.68,2.4,2.4,0,0,0-.72,1.78,2.34,2.34,0,0,0,.2,1,2.24,2.24,0,0,0,.53.79,2.46,2.46,0,0,0,.84.51,3.23,3.23,0,0,0,1.11.19,3.17,3.17,0,0,0,1.1-.19,2.46,2.46,0,0,0,.86-.51,2.74,2.74,0,0,0,.53-.79,2.68,2.68,0,0,0,.18-1A2.72,2.72,0,0,0,223.54,5.57Z"/><path class="cls-6" d="M243.27,28a5.65,5.65,0,0,1-.22-.86,10.89,10.89,0,0,1-.12-1.1c0-.4-.05-.85-.05-1.36V17.14a6.54,6.54,0,0,0-.54-2.74,5.48,5.48,0,0,0-1.5-2,6.85,6.85,0,0,0-2.28-1.18,10.53,10.53,0,0,0-2.87-.39,10.33,10.33,0,0,0-3.15.45,7.91,7.91,0,0,0-2.39,1.23,5.89,5.89,0,0,0-1.54,1.82,4.86,4.86,0,0,0-.53,2.21h4.78a2,2,0,0,1,.68-1.59,2.86,2.86,0,0,1,1.9-.58,2.47,2.47,0,0,1,2,.74,2.94,2.94,0,0,1,.64,2v1H236a15.17,15.17,0,0,0-3.59.39,7.65,7.65,0,0,0-2.59,1.16,4.91,4.91,0,0,0-1.57,1.86,5.85,5.85,0,0,0-.51,2.5,4.8,4.8,0,0,0,.46,2.15,5.19,5.19,0,0,0,1.28,1.7,6.08,6.08,0,0,0,1.93,1.1,7.25,7.25,0,0,0,2.41.4,5.77,5.77,0,0,0,2.68-.56,6,6,0,0,0,1.83-1.38,5.29,5.29,0,0,0,.48,1.61h4.83v-.28A5.13,5.13,0,0,1,243.27,28Zm-5.19-4a3.24,3.24,0,0,1-1.21,1.19,3.71,3.71,0,0,1-.93.39,4.11,4.11,0,0,1-1.13.15,2.4,2.4,0,0,1-1.72-.57,1.92,1.92,0,0,1-.62-1.48,2.9,2.9,0,0,1,.2-1.1,2.61,2.61,0,0,1,.66-.87,3.36,3.36,0,0,1,1.15-.58,6.06,6.06,0,0,1,1.63-.2h2Z"/><path class="cls-6" d="M262.5,14.49a5.47,5.47,0,0,0-1.16-2.11,4.11,4.11,0,0,0-1.78-1.17,7,7,0,0,0-2.32-.36,6.78,6.78,0,0,0-2.91.62,6.17,6.17,0,0,0-2.22,1.78L252,11.18h-4.49V29.07h4.77V16.46a3.48,3.48,0,0,1,1.22-1.25,3.3,3.3,0,0,1,1.81-.48,4.6,4.6,0,0,1,1.23.15,2.12,2.12,0,0,1,.89.47,2.08,2.08,0,0,1,.55.89,4.48,4.48,0,0,1,.19,1.42V29.07h4.78V17.69A10.9,10.9,0,0,0,262.5,14.49Z"/><path class="cls-6" d="M273.46,5.07V29.13h5V5.07Z"/><path class="cls-6" d="M298,14.56a5.43,5.43,0,0,0-1.14-2.12,4.24,4.24,0,0,0-1.79-1.16,6.83,6.83,0,0,0-2.31-.35,6.71,6.71,0,0,0-2.91.6,6.25,6.25,0,0,0-2.23,1.79l-.15-2.07H283V29.13h4.78V16.52A3.46,3.46,0,0,1,289,15.27a3.41,3.41,0,0,1,1.81-.47A4.42,4.42,0,0,1,292,15a1.9,1.9,0,0,1,.89.46,2.12,2.12,0,0,1,.56.89,4.5,4.5,0,0,1,.19,1.43v11.4h4.78V17.77A10.9,10.9,0,0,0,298,14.56Z"/><path class="cls-6" d="M323.61,11.25V29.13h4.79V11.25Zm4.89-5.62a2.66,2.66,0,0,0-.54-.78,2.37,2.37,0,0,0-.84-.51A3.27,3.27,0,0,0,326,4.16a2.71,2.71,0,0,0-2,.69,2.36,2.36,0,0,0-.72,1.77,2.66,2.66,0,0,0,.19,1,2.14,2.14,0,0,0,.54.78,2.11,2.11,0,0,0,.84.51A3,3,0,0,0,326,9.1a3,3,0,0,0,1.11-.19A2.11,2.11,0,0,0,328,8.4a2.42,2.42,0,0,0,.54-.78,2.66,2.66,0,0,0,.18-1A2.72,2.72,0,0,0,328.5,5.63Z"/><path class="cls-6" d="M344.68,11.25l-.2,1.69a5.13,5.13,0,0,0-1.9-1.49,6.22,6.22,0,0,0-2.68-.52,6.77,6.77,0,0,0-3,.65,6.36,6.36,0,0,0-2.26,1.87,8.52,8.52,0,0,0-1.44,2.89,12.76,12.76,0,0,0-.52,3.72v.35a12.3,12.3,0,0,0,.52,3.61,8.6,8.6,0,0,0,1.44,2.87,6.69,6.69,0,0,0,2.25,1.89,6.45,6.45,0,0,0,3,.69,6.06,6.06,0,0,0,2.48-.49,5.41,5.41,0,0,0,1.86-1.39v1a3.84,3.84,0,0,1-1.06,2.89,4.09,4.09,0,0,1-2.95,1,5.46,5.46,0,0,1-2.41-.53,6.47,6.47,0,0,1-1.93-1.47l-2.11,2.91a5.47,5.47,0,0,0,1.37,1.25,9.26,9.26,0,0,0,1.72.87,8.9,8.9,0,0,0,1.83.52,9.84,9.84,0,0,0,1.74.17,11.65,11.65,0,0,0,3.5-.5,7.82,7.82,0,0,0,2.71-1.49,6.87,6.87,0,0,0,1.76-2.41,7.93,7.93,0,0,0,.63-3.26V11.25ZM344.21,24A3,3,0,0,1,343,25.17a3.79,3.79,0,0,1-1.9.42,3.15,3.15,0,0,1-1.63-.4,3.45,3.45,0,0,1-1.14-1.11,5.18,5.18,0,0,1-.67-1.64,9.36,9.36,0,0,1-.22-2v-.35a8.43,8.43,0,0,1,.24-2.06,4.66,4.66,0,0,1,.68-1.67,3.3,3.3,0,0,1,1.14-1.12,3.18,3.18,0,0,1,1.63-.41,3.78,3.78,0,0,1,1.87.43,3.15,3.15,0,0,1,1.22,1.21Z"/><path class="cls-6" d="M368.61,14.66a5.75,5.75,0,0,0-1.19-2.16,4.49,4.49,0,0,0-1.88-1.21,7.56,7.56,0,0,0-2.4-.36,6,6,0,0,0-2.7.59,6.49,6.49,0,0,0-2.08,1.69V3.74h-4.78V29.13h4.78V16.42a3.08,3.08,0,0,1,1.17-1.18,3.66,3.66,0,0,1,1.86-.44,4.58,4.58,0,0,1,1.22.15,2.09,2.09,0,0,1,.91.51,2.18,2.18,0,0,1,.54.93,4.54,4.54,0,0,1,.2,1.44v11.3H369V17.86A10.61,10.61,0,0,0,368.61,14.66Z"/><path class="cls-6" d="M381.38,25.5c-.23,0-.5,0-.78,0a3.81,3.81,0,0,1-.81-.07,1.33,1.33,0,0,1-.57-.28,1.19,1.19,0,0,1-.34-.57,2.76,2.76,0,0,1-.12-.93V14.75h3.06v-3.5h-3.06V6.85H374v4.4h-2.61v3.5H374v9.44a7.24,7.24,0,0,0,.36,2.43,4.13,4.13,0,0,0,1,1.64,4.21,4.21,0,0,0,1.61.92,7.34,7.34,0,0,0,2.12.29,9.59,9.59,0,0,0,1.6-.13A10.62,10.62,0,0,0,382,29V25.41C381.83,25.45,381.62,25.47,381.38,25.5Z"/><path class="cls-6" d="M314.92,22.89a3.41,3.41,0,0,0-.18-1.14,2.29,2.29,0,0,0-.7-.93A6.6,6.6,0,0,0,312.6,20a21.71,21.71,0,0,0-2.37-.88,29.31,29.31,0,0,1-3.12-1.19,11.49,11.49,0,0,1-2.56-1.56,7,7,0,0,1-1.74-2.08,5.69,5.69,0,0,1-.63-2.74,5.78,5.78,0,0,1,.65-2.75,6.31,6.31,0,0,1,1.83-2.13,9.3,9.3,0,0,1,2.81-1.36,12.65,12.65,0,0,1,3.58-.49,11.26,11.26,0,0,1,3.64.56,8.18,8.18,0,0,1,2.79,1.54,6.76,6.76,0,0,1,1.79,2.36,7,7,0,0,1,.63,3h-5a4,4,0,0,0-.24-1.4A2.89,2.89,0,0,0,314,9.73,3.35,3.35,0,0,0,312.72,9,5.38,5.38,0,0,0,311,8.75a5.68,5.68,0,0,0-1.69.22,3.4,3.4,0,0,0-1.19.59,2.43,2.43,0,0,0-.71.9,2.53,2.53,0,0,0-.25,1.09,2.36,2.36,0,0,0,1.22,2,14.18,14.18,0,0,0,3.56,1.5,22.46,22.46,0,0,1,3.47,1.35,10.34,10.34,0,0,1,2.49,1.69,6.27,6.27,0,0,1,1.51,2.11,6.48,6.48,0,0,1,.52,2.66,6.3,6.3,0,0,1-.62,2.83,5.82,5.82,0,0,1-1.76,2.09,8.42,8.42,0,0,1-2.76,1.31,13.31,13.31,0,0,1-3.59.45,14.7,14.7,0,0,1-2.38-.2,11.19,11.19,0,0,1-2.27-.64,9.22,9.22,0,0,1-2-1.08,7.09,7.09,0,0,1-1.62-1.52,6.91,6.91,0,0,1-1.07-2,7.44,7.44,0,0,1-.39-2.47h5a4.43,4.43,0,0,0,.34,1.85,3.22,3.22,0,0,0,1,1.23,3.84,3.84,0,0,0,1.5.69,8.3,8.3,0,0,0,1.95.22,5.9,5.9,0,0,0,1.67-.21,3.55,3.55,0,0,0,1.17-.57,2.23,2.23,0,0,0,.69-.87A2.64,2.64,0,0,0,314.92,22.89Z"/></g></g></svg>