<?xml version="1.0" encoding="UTF-8"?>
<svg width="90px" height="112px" viewBox="0 0 90 112" version="1.1" xmlns="http://www.w3.org/2000/svg" xmlns:xlink="http://www.w3.org/1999/xlink">
    <!-- Generator: Sketch 52.2 (67145) - http://www.bohemiancoding.com/sketch -->
    <title>Group 9</title>
    <desc>Created with Sketch.</desc>
    <g id="External-Data-&amp;-Documents-Links" stroke="none" stroke-width="1" fill="none" fill-rule="evenodd">
        <g id="Document-Link" transform="translate(-275.000000, -288.000000)" fill="#FFFFFF" fill-rule="nonzero">
            <g id="Group-7" transform="translate(130.000000, 103.000000)">
                <g id="Group-6-Copy-2" transform="translate(0.000000, 45.000000)">
                    <g id="noun_Document_1914526" transform="translate(145.000000, 140.000000)">
                        <g id="Group">
                            <g id="Group-9">
                                <path d="M2.64705945,7.50151912e-05 C1.22373595,3.61447682e-05 -0.00105813751,1.42414479 6.85997374e-07,2.59143654 L6.85997374e-07,108.837207 C0.000133038936,110.194044 1.26105948,111.428439 2.64705945,111.428569 L87.3529412,111.428569 C88.7389412,111.428439 89.9998676,110.194044 90,108.837207 L90,25.9136903 C90,25.2238051 89.7154412,24.5362521 89.2140883,24.0511492 L65.3905594,0.728895445 C64.8980741,0.262463327 64.2147359,-0.00514657829 63.5294124,7.50151912e-05 L2.64705945,7.50151912e-05 Z M5.29411821,5.18279807 L60.8823536,5.18279807 L60.8823536,25.9136903 C60.8824859,27.2704883 62.1434124,28.5049223 63.5294124,28.5050518 L84.7058825,28.5050518 L84.7058825,106.245846 L5.29411821,106.245846 L5.29411821,5.18279807 Z M66.1764711,8.82690022 L80.9834561,23.3223288 L66.1764711,23.3223288 L66.1764711,8.82690022 Z" id="Shape"></path>
                                <g id="Icon/Download" transform="translate(34.000000, 42.000000)">
                                    <path d="M23,9.88235294 L16.4285714,9.88235294 L16.4285714,0 L6.57142857,0 L6.57142857,9.88235294 L0,9.88235294 L11.5,21.4117647 L23,9.88235294 Z M0,24.7058824 L0,28 L23,28 L23,24.7058824 L0,24.7058824 Z" id="Shape"></path>
                                </g>
                            </g>
                        </g>
                    </g>
                </g>
            </g>
        </g>
    </g>
</svg>